<svg width="246" height="257" viewBox="0 0 246 257" fill="none" xmlns="http://www.w3.org/2000/svg">
<path d="M129.517 104.186C134.643 105.694 138.714 108.332 141.729 112.102C144.82 115.795 146.365 120.469 146.365 126.123C146.365 134.868 143.576 141.502 137.998 146.025C132.419 150.548 125.408 152.809 116.965 152.809C110.03 152.809 103.962 151.226 98.76 148.06C93.5585 144.894 89.8269 140.22 87.5654 134.038L107.467 122.618C109.05 128.121 112.216 130.872 116.965 130.872C119.001 130.872 120.622 130.345 121.828 129.289C123.109 128.234 123.75 126.802 123.75 124.992C123.75 121.223 121.488 119.338 116.965 119.338H112.103L103.283 106.222L113.912 93.7831H90.0531V71.8461H142.068V89.26L129.517 104.186Z" fill="#007EDA"/>
<rect y="126" width="56" height="56" fill="#161616" fill-opacity="0.05"/>
<rect x="73" y="182" width="75" height="75" fill="#161616" fill-opacity="0.05"/>
<rect x="128" y="178" width="37" height="37" fill="#161616" fill-opacity="0.1"/>
<rect x="189" y="121" width="57" height="57" fill="#161616" fill-opacity="0.1"/>
<rect x="28" y="30" width="54" height="54" fill="#161616" fill-opacity="0.15"/>
<rect x="67" width="43" height="43" fill="#161616" fill-opacity="0.1"/>
<rect x="40.5" y="166.5" width="31" height="31" stroke="#007EDA" stroke-width="3"/>
<rect x="167.5" y="166.5" width="31" height="31" stroke="#007EDA" stroke-width="3"/>
<rect x="167.5" y="39.5" width="31" height="31" fill="#007EDA" stroke="#007EDA" stroke-width="3"/>
</svg>
