<svg width="246" height="257" viewBox="0 0 246 257" fill="none" xmlns="http://www.w3.org/2000/svg">
<path d="M89.2615 151V134.491L115.043 106.561C115.495 106.033 116.136 105.317 116.965 104.412C117.87 103.508 118.473 102.867 118.775 102.49C119.152 102.113 119.604 101.623 120.132 101.02C120.735 100.342 121.112 99.8138 121.262 99.4369C121.488 98.9846 121.677 98.5323 121.828 98.08C122.054 97.5523 122.167 97.0246 122.167 96.4969C122.167 95.2154 121.715 94.16 120.81 93.3308C119.905 92.4261 118.586 91.9738 116.852 91.9738C112.631 91.9738 109.502 94.65 107.467 100.002L87.5654 89.1469C90.2038 82.89 94.0862 78.1408 99.2123 74.8992C104.414 71.6577 110.181 70.0369 116.513 70.0369C124.278 70.0369 130.912 72.2608 136.415 76.7085C141.993 81.0808 144.782 87.1492 144.782 94.9138C144.782 99.6631 143.727 103.809 141.616 107.352C139.581 110.895 136.339 115.155 131.892 120.13L123.863 129.063H146.478V151H89.2615Z" fill="#007EDA"/>
<rect y="126" width="56" height="56" fill="#161616" fill-opacity="0.05"/>
<rect x="73" y="182" width="75" height="75" fill="#161616" fill-opacity="0.05"/>
<rect x="128" y="178" width="37" height="37" fill="#161616" fill-opacity="0.1"/>
<rect x="189" y="121" width="57" height="57" fill="#161616" fill-opacity="0.1"/>
<rect x="28" y="30" width="54" height="54" fill="#161616" fill-opacity="0.15"/>
<rect x="67" width="43" height="43" fill="#161616" fill-opacity="0.1"/>
<rect x="40.5" y="166.5" width="31" height="31" stroke="#007EDA" stroke-width="3"/>
<rect x="166" y="165" width="34" height="34" fill="#007EDA"/>
<rect x="167.5" y="39.5" width="31" height="31" stroke="#007EDA" stroke-width="3"/>
</svg>
